  0
SECTION
  2
HEADER
  9
$ACADVER
  1
AC1009
  9
$EXTMIN
 10
0.0
 20
0.0
 30
0.0
  9
$EXTMAX
 10
1000.0
 20
1000.0
 30
0.0
  9
$FILLMODE
 70
 0
  9
$SPLFRAME
 70
 1
  0
ENDSEC
  0
SECTION
  2
TABLES
  0
TABLE
  2
LAYER
 70
1
  0
LAYER
  2
0
 70
     0
 62
     7
  6
CONTINUOUS
  0
ENDTAB
  0
ENDSEC
  0
SECTION
  2
ENTITIES
  0
LINE
  8
0
 62
     0
 10
245.364
 20
76.4575
 30
0.0
 11
245.551
 21
76.4508
 31
0.0
  0
LINE
  8
0
 62
     0
 10
245.551
 20
76.4508
 30
0.0
 11
245.737
 21
76.4286
 31
0.0
  0
LINE
  8
0
 62
     0
 10
245.737
 20
76.4286
 30
0.0
 11
245.921
 21
76.393
 31
0.0
  0
LINE
  8
0
 62
     0
 10
245.921
 20
76.393
 30
0.0
 11
246.101
 21
76.3418
 31
0.0
  0
LINE
  8
0
 62
     0
 10
246.101
 20
76.3418
 30
0.0
 11
246.276
 21
76.2758
 31
0.0
  0
LINE
  8
0
 62
     0
 10
246.276
 20
76.2758
 30
0.0
 11
246.446
 21
76.1986
 31
0.0
  0
LINE
  8
0
 62
     0
 10
246.446
 20
76.1986
 30
0.0
 11
246.608
 21
76.1076
 31
0.0
  0
LINE
  8
0
 62
     0
 10
246.608
 20
76.1076
 30
0.0
 11
246.764
 21
76.0028
 31
0.0
  0
LINE
  8
0
 62
     0
 10
246.764
 20
76.0028
 30
0.0
 11
246.911
 21
75.8871
 31
0.0
  0
LINE
  8
0
 62
     0
 10
246.911
 20
75.8871
 30
0.0
 11
247.049
 21
75.7604
 31
0.0
  0
LINE
  8
0
 62
     0
 10
247.049
 20
75.7604
 30
0.0
 11
247.176
 21
75.6225
 31
0.0
  0
LINE
  8
0
 62
     0
 10
247.176
 20
75.6225
 30
0.0
 11
247.292
 21
75.4765
 31
0.0
  0
LINE
  8
0
 62
     0
 10
247.292
 20
75.4765
 30
0.0
 11
247.395
 21
75.3209
 31
0.0
  0
LINE
  8
0
 62
     0
 10
247.395
 20
75.3209
 30
0.0
 11
247.486
 21
75.1568
 31
0.0
  0
LINE
  8
0
 62
     0
 10
247.486
 20
75.1568
 30
0.0
 11
247.565
 21
74.9886
 31
0.0
  0
LINE
  8
0
 62
     0
 10
247.565
 20
74.9886
 30
0.0
 11
247.629
 21
74.8122
 31
0.0
  0
LINE
  8
0
 62
     0
 10
247.629
 20
74.8122
 30
0.0
 11
247.68
 21
74.6319
 31
0.0
  0
LINE
  8
0
 62
     0
 10
247.68
 20
74.6319
 30
0.0
 11
247.716
 21
74.4499
 31
0.0
  0
LINE
  8
0
 62
     0
 10
247.716
 20
74.4499
 30
0.0
 11
247.738
 21
74.264
 31
0.0
  0
LINE
  8
0
 62
     0
 10
247.738
 20
74.264
 30
0.0
 11
247.746
 21
74.0763
 31
0.0
  0
LINE
  8
0
 62
     0
 10
247.746
 20
74.0763
 30
0.0
 11
247.746
 21
2.63894
 31
0.0
  0
LINE
  8
0
 62
     0
 10
247.746
 20
2.63894
 30
0.0
 11
247.738
 21
2.45153
 31
0.0
  0
LINE
  8
0
 62
     0
 10
247.738
 20
2.45153
 30
0.0
 11
247.716
 21
2.2655
 31
0.0
  0
LINE
  8
0
 62
     0
 10
247.716
 20
2.2655
 30
0.0
 11
247.68
 21
2.08221
 31
0.0
  0
LINE
  8
0
 62
     0
 10
247.68
 20
2.08221
 30
0.0
 11
247.629
 21
1.90169
 31
0.0
  0
LINE
  8
0
 62
     0
 10
247.629
 20
1.90169
 30
0.0
 11
247.565
 21
1.72668
 31
0.0
  0
LINE
  8
0
 62
     0
 10
247.565
 20
1.72668
 30
0.0
 11
247.486
 21
1.55718
 31
0.0
  0
LINE
  8
0
 62
     0
 10
247.486
 20
1.55718
 30
0.0
 11
247.395
 21
1.39458
 31
0.0
  0
LINE
  8
0
 62
     0
 10
247.395
 20
1.39458
 30
0.0
 11
247.292
 21
1.23886
 31
0.0
  0
LINE
  8
0
 62
     0
 10
247.292
 20
1.23886
 30
0.0
 11
247.176
 21
1.09141
 31
0.0
  0
LINE
  8
0
 62
     0
 10
247.176
 20
1.09141
 30
0.0
 11
247.049
 21
0.953604
 31
0.0
  0
LINE
  8
0
 62
     0
 10
247.049
 20
0.953604
 30
0.0
 11
246.911
 21
0.826823
 31
0.0
  0
LINE
  8
0
 62
     0
 10
246.911
 20
0.826823
 30
0.0
 11
246.764
 21
0.711069
 31
0.0
  0
LINE
  8
0
 62
     0
 10
246.764
 20
0.711069
 30
0.0
 11
246.608
 21
0.607716
 31
0.0
  0
LINE
  8
0
 62
     0
 10
246.608
 20
0.607716
 30
0.0
 11
246.446
 21
0.516763
 31
0.0
  0
LINE
  8
0
 62
     0
 10
246.446
 20
0.516763
 30
0.0
 11
246.276
 21
0.438217
 31
0.0
  0
LINE
  8
0
 62
     0
 10
246.276
 20
0.438217
 30
0.0
 11
246.101
 21
0.373447
 31
0.0
  0
LINE
  8
0
 62
     0
 10
246.101
 20
0.373447
 30
0.0
 11
245.921
 21
0.322461
 31
0.0
  0
LINE
  8
0
 62
     0
 10
245.921
 20
0.322461
 30
0.0
 11
245.737
 21
0.286632
 31
0.0
  0
LINE
  8
0
 62
     0
 10
245.737
 20
0.286632
 30
0.0
 11
245.551
 21
0.264583
 31
0.0
  0
LINE
  8
0
 62
     0
 10
245.551
 20
0.264583
 30
0.0
 11
245.364
 21
0.256315
 31
0.0
  0
LINE
  8
0
 62
     0
 10
245.364
 20
0.256315
 30
0.0
 11
2.47633
 21
0.256315
 31
0.0
  0
LINE
  8
0
 62
     0
 10
2.47633
 20
0.256315
 30
0.0
 11
2.28892
 21
0.264583
 31
0.0
  0
LINE
  8
0
 62
     0
 10
2.28892
 20
0.264583
 30
0.0
 11
2.10289
 21
0.286632
 31
0.0
  0
LINE
  8
0
 62
     0
 10
2.10289
 20
0.286632
 30
0.0
 11
1.92098
 21
0.322461
 31
0.0
  0
LINE
  8
0
 62
     0
 10
1.92098
 20
0.322461
 30
0.0
 11
1.74046
 21
0.373447
 31
0.0
  0
LINE
  8
0
 62
     0
 10
1.74046
 20
0.373447
 30
0.0
 11
1.56407
 21
0.438217
 31
0.0
  0
LINE
  8
0
 62
     0
 10
1.56407
 20
0.438217
 30
0.0
 11
1.39595
 21
0.516763
 31
0.0
  0
LINE
  8
0
 62
     0
 10
1.39595
 20
0.516763
 30
0.0
 11
1.23197
 21
0.607716
 31
0.0
  0
LINE
  8
0
 62
     0
 10
1.23197
 20
0.607716
 30
0.0
 11
1.07625
 21
0.711069
 31
0.0
  0
LINE
  8
0
 62
     0
 10
1.07625
 20
0.711069
 30
0.0
 11
0.930176
 21
0.826823
 31
0.0
  0
LINE
  8
0
 62
     0
 10
0.930176
 20
0.826823
 30
0.0
 11
0.792371
 21
0.953604
 31
0.0
  0
LINE
  8
0
 62
     0
 10
0.792371
 20
0.953604
 30
0.0
 11
0.665593
 21
1.09141
 31
0.0
  0
LINE
  8
0
 62
     0
 10
0.665593
 20
1.09141
 30
0.0
 11
0.549836
 21
1.23886
 31
0.0
  0
LINE
  8
0
 62
     0
 10
0.549836
 20
1.23886
 30
0.0
 11
0.445107
 21
1.39458
 31
0.0
  0
LINE
  8
0
 62
     0
 10
0.445107
 20
1.39458
 30
0.0
 11
0.354157
 21
1.55718
 31
0.0
  0
LINE
  8
0
 62
     0
 10
0.354157
 20
1.55718
 30
0.0
 11
0.276986
 21
1.72668
 31
0.0
  0
LINE
  8
0
 62
     0
 10
0.276986
 20
1.72668
 30
0.0
 11
0.21084
 21
1.90169
 31
0.0
  0
LINE
  8
0
 62
     0
 10
0.21084
 20
1.90169
 30
0.0
 11
0.159852
 21
2.08221
 31
0.0
  0
LINE
  8
0
 62
     0
 10
0.159852
 20
2.08221
 30
0.0
 11
0.124024
 21
2.2655
 31
0.0
  0
LINE
  8
0
 62
     0
 10
0.124024
 20
2.2655
 30
0.0
 11
0.101975
 21
2.45153
 31
0.0
  0
LINE
  8
0
 62
     0
 10
0.101975
 20
2.45153
 30
0.0
 11
0.0950846
 21
2.63894
 31
0.0
  0
LINE
  8
0
 62
     0
 10
0.0950846
 20
2.63894
 30
0.0
 11
0.0950846
 21
74.0763
 31
0.0
  0
LINE
  8
0
 62
     0
 10
0.0950846
 20
74.0763
 30
0.0
 11
0.101975
 21
74.264
 31
0.0
  0
LINE
  8
0
 62
     0
 10
0.101975
 20
74.264
 30
0.0
 11
0.124024
 21
74.4499
 31
0.0
  0
LINE
  8
0
 62
     0
 10
0.124024
 20
74.4499
 30
0.0
 11
0.159852
 21
74.6319
 31
0.0
  0
LINE
  8
0
 62
     0
 10
0.159852
 20
74.6319
 30
0.0
 11
0.21084
 21
74.8122
 31
0.0
  0
LINE
  8
0
 62
     0
 10
0.21084
 20
74.8122
 30
0.0
 11
0.276986
 21
74.9886
 31
0.0
  0
LINE
  8
0
 62
     0
 10
0.276986
 20
74.9886
 30
0.0
 11
0.354157
 21
75.1568
 31
0.0
  0
LINE
  8
0
 62
     0
 10
0.354157
 20
75.1568
 30
0.0
 11
0.445107
 21
75.3209
 31
0.0
  0
LINE
  8
0
 62
     0
 10
0.445107
 20
75.3209
 30
0.0
 11
0.549836
 21
75.4765
 31
0.0
  0
LINE
  8
0
 62
     0
 10
0.549836
 20
75.4765
 30
0.0
 11
0.665593
 21
75.6225
 31
0.0
  0
LINE
  8
0
 62
     0
 10
0.665593
 20
75.6225
 30
0.0
 11
0.792371
 21
75.7604
 31
0.0
  0
LINE
  8
0
 62
     0
 10
0.792371
 20
75.7604
 30
0.0
 11
0.930176
 21
75.8871
 31
0.0
  0
LINE
  8
0
 62
     0
 10
0.930176
 20
75.8871
 30
0.0
 11
1.07625
 21
76.0028
 31
0.0
  0
LINE
  8
0
 62
     0
 10
1.07625
 20
76.0028
 30
0.0
 11
1.23197
 21
76.1076
 31
0.0
  0
LINE
  8
0
 62
     0
 10
1.23197
 20
76.1076
 30
0.0
 11
1.39595
 21
76.1986
 31
0.0
  0
LINE
  8
0
 62
     0
 10
1.39595
 20
76.1986
 30
0.0
 11
1.56407
 21
76.2758
 31
0.0
  0
LINE
  8
0
 62
     0
 10
1.56407
 20
76.2758
 30
0.0
 11
1.74046
 21
76.3418
 31
0.0
  0
LINE
  8
0
 62
     0
 10
1.74046
 20
76.3418
 30
0.0
 11
1.92098
 21
76.393
 31
0.0
  0
LINE
  8
0
 62
     0
 10
1.92098
 20
76.393
 30
0.0
 11
2.10289
 21
76.4286
 31
0.0
  0
LINE
  8
0
 62
     0
 10
2.10289
 20
76.4286
 30
0.0
 11
2.28892
 21
76.4508
 31
0.0
  0
LINE
  8
0
 62
     0
 10
2.28892
 20
76.4508
 30
0.0
 11
2.47633
 21
76.4575
 31
0.0
  0
LINE
  8
0
 62
     0
 10
2.47633
 20
76.4575
 30
0.0
 11
245.364
 21
76.4575
 31
0.0
  0
LINE
  8
0
 62
     0
 10
138.351
 20
16.7817
 30
0.0
 11
138.351
 21
12.0826
 31
0.0
  0
LINE
  8
0
 62
     0
 10
138.351
 20
12.0826
 30
0.0
 11
136.827
 21
12.0826
 31
0.0
  0
LINE
  8
0
 62
     0
 10
136.827
 20
12.0826
 30
0.0
 11
136.827
 21
15.3128
 31
0.0
  0
LINE
  8
0
 62
     0
 10
136.827
 20
15.3128
 30
0.0
 11
130.077
 21
15.3128
 31
0.0
  0
LINE
  8
0
 62
     0
 10
130.077
 20
15.3128
 30
0.0
 11
130.077
 21
12.0826
 31
0.0
  0
LINE
  8
0
 62
     0
 10
130.077
 20
12.0826
 30
0.0
 11
129.252
 21
12.0826
 31
0.0
  0
LINE
  8
0
 62
     0
 10
129.252
 20
12.0826
 30
0.0
 11
129.252
 21
9.28247
 31
0.0
  0
LINE
  8
0
 62
     0
 10
129.252
 20
9.28247
 30
0.0
 11
130.077
 21
9.28247
 31
0.0
  0
LINE
  8
0
 62
     0
 10
130.077
 20
9.28247
 30
0.0
 11
130.077
 21
3.01239
 31
0.0
  0
LINE
  8
0
 62
     0
 10
130.077
 20
3.01239
 30
0.0
 11
131.801
 21
3.01239
 31
0.0
  0
LINE
  8
0
 62
     0
 10
131.801
 20
3.01239
 30
0.0
 11
131.801
 21
1.81212
 31
0.0
  0
LINE
  8
0
 62
     0
 10
131.801
 20
1.81212
 30
0.0
 11
135.102
 21
1.81212
 31
0.0
  0
LINE
  8
0
 62
     0
 10
135.102
 20
1.81212
 30
0.0
 11
135.102
 21
3.01239
 31
0.0
  0
LINE
  8
0
 62
     0
 10
135.102
 20
3.01239
 30
0.0
 11
136.827
 21
3.01239
 31
0.0
  0
LINE
  8
0
 62
     0
 10
136.827
 20
3.01239
 30
0.0
 11
136.827
 21
7.48273
 31
0.0
  0
LINE
  8
0
 62
     0
 10
136.827
 20
7.48273
 30
0.0
 11
138.351
 21
7.48273
 31
0.0
  0
LINE
  8
0
 62
     0
 10
138.351
 20
7.48273
 30
0.0
 11
138.351
 21
2.78226
 31
0.0
  0
LINE
  8
0
 62
     0
 10
138.351
 20
2.78226
 30
0.0
 11
152.352
 21
2.78226
 31
0.0
  0
LINE
  8
0
 62
     0
 10
152.352
 20
2.78226
 30
0.0
 11
152.352
 21
7.48273
 31
0.0
  0
LINE
  8
0
 62
     0
 10
152.352
 20
7.48273
 30
0.0
 11
153.876
 21
7.48273
 31
0.0
  0
LINE
  8
0
 62
     0
 10
153.876
 20
7.48273
 30
0.0
 11
153.876
 21
3.01239
 31
0.0
  0
LINE
  8
0
 62
     0
 10
153.876
 20
3.01239
 30
0.0
 11
155.601
 21
3.01239
 31
0.0
  0
LINE
  8
0
 62
     0
 10
155.601
 20
3.01239
 30
0.0
 11
155.601
 21
1.81212
 31
0.0
  0
LINE
  8
0
 62
     0
 10
155.601
 20
1.81212
 30
0.0
 11
158.902
 21
1.81212
 31
0.0
  0
LINE
  8
0
 62
     0
 10
158.902
 20
1.81212
 30
0.0
 11
158.902
 21
3.01239
 31
0.0
  0
LINE
  8
0
 62
     0
 10
158.902
 20
3.01239
 30
0.0
 11
160.627
 21
3.01239
 31
0.0
  0
LINE
  8
0
 62
     0
 10
160.627
 20
3.01239
 30
0.0
 11
160.627
 21
9.28247
 31
0.0
  0
LINE
  8
0
 62
     0
 10
160.627
 20
9.28247
 30
0.0
 11
161.451
 21
9.28247
 31
0.0
  0
LINE
  8
0
 62
     0
 10
161.451
 20
9.28247
 30
0.0
 11
161.451
 21
12.0826
 31
0.0
  0
LINE
  8
0
 62
     0
 10
161.451
 20
12.0826
 30
0.0
 11
160.627
 21
12.0826
 31
0.0
  0
LINE
  8
0
 62
     0
 10
160.627
 20
12.0826
 30
0.0
 11
160.627
 21
15.3128
 31
0.0
  0
LINE
  8
0
 62
     0
 10
160.627
 20
15.3128
 30
0.0
 11
153.876
 21
15.3128
 31
0.0
  0
LINE
  8
0
 62
     0
 10
153.876
 20
15.3128
 30
0.0
 11
153.876
 21
12.0826
 31
0.0
  0
LINE
  8
0
 62
     0
 10
153.876
 20
12.0826
 30
0.0
 11
152.352
 21
12.0826
 31
0.0
  0
LINE
  8
0
 62
     0
 10
152.352
 20
12.0826
 30
0.0
 11
152.352
 21
16.7817
 31
0.0
  0
LINE
  8
0
 62
     0
 10
152.352
 20
16.7817
 30
0.0
 11
138.351
 21
16.7817
 31
0.0
  0
LINE
  8
0
 62
     0
 10
90.726
 20
16.7817
 30
0.0
 11
90.726
 21
12.0826
 31
0.0
  0
LINE
  8
0
 62
     0
 10
90.726
 20
12.0826
 30
0.0
 11
89.2016
 21
12.0826
 31
0.0
  0
LINE
  8
0
 62
     0
 10
89.2016
 20
12.0826
 30
0.0
 11
89.2016
 21
15.3128
 31
0.0
  0
LINE
  8
0
 62
     0
 10
89.2016
 20
15.3128
 30
0.0
 11
82.4523
 21
15.3128
 31
0.0
  0
LINE
  8
0
 62
     0
 10
82.4523
 20
15.3128
 30
0.0
 11
82.4523
 21
12.0826
 31
0.0
  0
LINE
  8
0
 62
     0
 10
82.4523
 20
12.0826
 30
0.0
 11
81.6268
 21
12.0826
 31
0.0
  0
LINE
  8
0
 62
     0
 10
81.6268
 20
12.0826
 30
0.0
 11
81.6268
 21
9.28247
 31
0.0
  0
LINE
  8
0
 62
     0
 10
81.6268
 20
9.28247
 30
0.0
 11
82.4523
 21
9.28247
 31
0.0
  0
LINE
  8
0
 62
     0
 10
82.4523
 20
9.28247
 30
0.0
 11
82.4523
 21
3.01239
 31
0.0
  0
LINE
  8
0
 62
     0
 10
82.4523
 20
3.01239
 30
0.0
 11
84.176
 21
3.01239
 31
0.0
  0
LINE
  8
0
 62
     0
 10
84.176
 20
3.01239
 30
0.0
 11
84.176
 21
1.81212
 31
0.0
  0
LINE
  8
0
 62
     0
 10
84.176
 20
1.81212
 30
0.0
 11
87.4765
 21
1.81212
 31
0.0
  0
LINE
  8
0
 62
     0
 10
87.4765
 20
1.81212
 30
0.0
 11
87.4765
 21
3.01239
 31
0.0
  0
LINE
  8
0
 62
     0
 10
87.4765
 20
3.01239
 30
0.0
 11
89.2016
 21
3.01239
 31
0.0
  0
LINE
  8
0
 62
     0
 10
89.2016
 20
3.01239
 30
0.0
 11
89.2016
 21
7.48273
 31
0.0
  0
LINE
  8
0
 62
     0
 10
89.2016
 20
7.48273
 30
0.0
 11
90.726
 21
7.48273
 31
0.0
  0
LINE
  8
0
 62
     0
 10
90.726
 20
7.48273
 30
0.0
 11
90.726
 21
2.78226
 31
0.0
  0
LINE
  8
0
 62
     0
 10
90.726
 20
2.78226
 30
0.0
 11
104.727
 21
2.78226
 31
0.0
  0
LINE
  8
0
 62
     0
 10
104.727
 20
2.78226
 30
0.0
 11
104.727
 21
7.48273
 31
0.0
  0
LINE
  8
0
 62
     0
 10
104.727
 20
7.48273
 30
0.0
 11
106.251
 21
7.48273
 31
0.0
  0
LINE
  8
0
 62
     0
 10
106.251
 20
7.48273
 30
0.0
 11
106.251
 21
3.01239
 31
0.0
  0
LINE
  8
0
 62
     0
 10
106.251
 20
3.01239
 30
0.0
 11
107.976
 21
3.01239
 31
0.0
  0
LINE
  8
0
 62
     0
 10
107.976
 20
3.01239
 30
0.0
 11
107.976
 21
1.81212
 31
0.0
  0
LINE
  8
0
 62
     0
 10
107.976
 20
1.81212
 30
0.0
 11
111.277
 21
1.81212
 31
0.0
  0
LINE
  8
0
 62
     0
 10
111.277
 20
1.81212
 30
0.0
 11
111.277
 21
3.01239
 31
0.0
  0
LINE
  8
0
 62
     0
 10
111.277
 20
3.01239
 30
0.0
 11
113.002
 21
3.01239
 31
0.0
  0
LINE
  8
0
 62
     0
 10
113.002
 20
3.01239
 30
0.0
 11
113.002
 21
9.28247
 31
0.0
  0
LINE
  8
0
 62
     0
 10
113.002
 20
9.28247
 30
0.0
 11
113.826
 21
9.28247
 31
0.0
  0
LINE
  8
0
 62
     0
 10
113.826
 20
9.28247
 30
0.0
 11
113.826
 21
12.0826
 31
0.0
  0
LINE
  8
0
 62
     0
 10
113.826
 20
12.0826
 30
0.0
 11
113.002
 21
12.0826
 31
0.0
  0
LINE
  8
0
 62
     0
 10
113.002
 20
12.0826
 30
0.0
 11
113.002
 21
15.3128
 31
0.0
  0
LINE
  8
0
 62
     0
 10
113.002
 20
15.3128
 30
0.0
 11
106.251
 21
15.3128
 31
0.0
  0
LINE
  8
0
 62
     0
 10
106.251
 20
15.3128
 30
0.0
 11
106.251
 21
12.0826
 31
0.0
  0
LINE
  8
0
 62
     0
 10
106.251
 20
12.0826
 30
0.0
 11
104.727
 21
12.0826
 31
0.0
  0
LINE
  8
0
 62
     0
 10
104.727
 20
12.0826
 30
0.0
 11
104.727
 21
16.7817
 31
0.0
  0
LINE
  8
0
 62
     0
 10
104.727
 20
16.7817
 30
0.0
 11
90.726
 21
16.7817
 31
0.0
  0
LINE
  8
0
 62
     0
 10
216.932
 20
16.7817
 30
0.0
 11
230.933
 21
16.7817
 31
0.0
  0
LINE
  8
0
 62
     0
 10
230.933
 20
16.7817
 30
0.0
 11
230.933
 21
2.78226
 31
0.0
  0
LINE
  8
0
 62
     0
 10
230.933
 20
2.78226
 30
0.0
 11
216.932
 21
2.78226
 31
0.0
  0
LINE
  8
0
 62
     0
 10
216.932
 20
2.78226
 30
0.0
 11
216.932
 21
16.7817
 31
0.0
  0
LINE
  8
0
 62
     0
 10
195.501
 20
16.7817
 30
0.0
 11
209.502
 21
16.7817
 31
0.0
  0
LINE
  8
0
 62
     0
 10
209.502
 20
16.7817
 30
0.0
 11
209.502
 21
2.78226
 31
0.0
  0
LINE
  8
0
 62
     0
 10
209.502
 20
2.78226
 30
0.0
 11
195.501
 21
2.78226
 31
0.0
  0
LINE
  8
0
 62
     0
 10
195.501
 20
2.78226
 30
0.0
 11
195.501
 21
16.7817
 31
0.0
  0
LINE
  8
0
 62
     0
 10
174.071
 20
16.7817
 30
0.0
 11
188.07
 21
16.7817
 31
0.0
  0
LINE
  8
0
 62
     0
 10
188.07
 20
16.7817
 30
0.0
 11
188.07
 21
2.78226
 31
0.0
  0
LINE
  8
0
 62
     0
 10
188.07
 20
2.78226
 30
0.0
 11
174.071
 21
2.78226
 31
0.0
  0
LINE
  8
0
 62
     0
 10
174.071
 20
2.78226
 30
0.0
 11
174.071
 21
16.7817
 31
0.0
  0
LINE
  8
0
 62
     0
 10
59.7711
 20
16.7817
 30
0.0
 11
73.7704
 21
16.7817
 31
0.0
  0
LINE
  8
0
 62
     0
 10
73.7704
 20
16.7817
 30
0.0
 11
73.7704
 21
2.78226
 31
0.0
  0
LINE
  8
0
 62
     0
 10
73.7704
 20
2.78226
 30
0.0
 11
59.7711
 21
2.78226
 31
0.0
  0
LINE
  8
0
 62
     0
 10
59.7711
 20
2.78226
 30
0.0
 11
59.7711
 21
16.7817
 31
0.0
  0
LINE
  8
0
 62
     0
 10
38.3385
 20
16.7817
 30
0.0
 11
52.3378
 21
16.7817
 31
0.0
  0
LINE
  8
0
 62
     0
 10
52.3378
 20
16.7817
 30
0.0
 11
52.3378
 21
2.78226
 31
0.0
  0
LINE
  8
0
 62
     0
 10
52.3378
 20
2.78226
 30
0.0
 11
38.3385
 21
2.78226
 31
0.0
  0
LINE
  8
0
 62
     0
 10
38.3385
 20
2.78226
 30
0.0
 11
38.3385
 21
16.7817
 31
0.0
  0
LINE
  8
0
 62
     0
 10
16.9072
 20
16.7817
 30
0.0
 11
30.908
 21
16.7817
 31
0.0
  0
LINE
  8
0
 62
     0
 10
30.908
 20
16.7817
 30
0.0
 11
30.908
 21
2.78226
 31
0.0
  0
LINE
  8
0
 62
     0
 10
30.908
 20
2.78226
 30
0.0
 11
16.9072
 21
2.78226
 31
0.0
  0
LINE
  8
0
 62
     0
 10
16.9072
 20
2.78226
 30
0.0
 11
16.9072
 21
16.7817
 31
0.0
  0
LINE
  8
0
 62
     0
 10
228.838
 20
35.8316
 30
0.0
 11
242.838
 21
35.8316
 31
0.0
  0
LINE
  8
0
 62
     0
 10
242.838
 20
35.8316
 30
0.0
 11
242.838
 21
21.8323
 31
0.0
  0
LINE
  8
0
 62
     0
 10
242.838
 20
21.8323
 30
0.0
 11
228.838
 21
21.8323
 31
0.0
  0
LINE
  8
0
 62
     0
 10
228.838
 20
21.8323
 30
0.0
 11
228.838
 21
35.8316
 31
0.0
  0
LINE
  8
0
 62
     0
 10
207.407
 20
35.8316
 30
0.0
 11
221.408
 21
35.8316
 31
0.0
  0
LINE
  8
0
 62
     0
 10
221.408
 20
35.8316
 30
0.0
 11
221.408
 21
21.8323
 31
0.0
  0
LINE
  8
0
 62
     0
 10
221.408
 20
21.8323
 30
0.0
 11
207.407
 21
21.8323
 31
0.0
  0
LINE
  8
0
 62
     0
 10
207.407
 20
21.8323
 30
0.0
 11
207.407
 21
35.8316
 31
0.0
  0
LINE
  8
0
 62
     0
 10
188.357
 20
35.8316
 30
0.0
 11
202.358
 21
35.8316
 31
0.0
  0
LINE
  8
0
 62
     0
 10
202.358
 20
35.8316
 30
0.0
 11
202.358
 21
21.8323
 31
0.0
  0
LINE
  8
0
 62
     0
 10
202.358
 20
21.8323
 30
0.0
 11
188.357
 21
21.8323
 31
0.0
  0
LINE
  8
0
 62
     0
 10
188.357
 20
21.8323
 30
0.0
 11
188.357
 21
35.8316
 31
0.0
  0
LINE
  8
0
 62
     0
 10
169.307
 20
35.8316
 30
0.0
 11
183.308
 21
35.8316
 31
0.0
  0
LINE
  8
0
 62
     0
 10
183.308
 20
35.8316
 30
0.0
 11
183.308
 21
21.8323
 31
0.0
  0
LINE
  8
0
 62
     0
 10
183.308
 20
21.8323
 30
0.0
 11
169.307
 21
21.8323
 31
0.0
  0
LINE
  8
0
 62
     0
 10
169.307
 20
21.8323
 30
0.0
 11
169.307
 21
35.8316
 31
0.0
  0
LINE
  8
0
 62
     0
 10
150.257
 20
35.8316
 30
0.0
 11
164.258
 21
35.8316
 31
0.0
  0
LINE
  8
0
 62
     0
 10
164.258
 20
35.8316
 30
0.0
 11
164.258
 21
21.8323
 31
0.0
  0
LINE
  8
0
 62
     0
 10
164.258
 20
21.8323
 30
0.0
 11
150.257
 21
21.8323
 31
0.0
  0
LINE
  8
0
 62
     0
 10
150.257
 20
21.8323
 30
0.0
 11
150.257
 21
35.8316
 31
0.0
  0
LINE
  8
0
 62
     0
 10
131.207
 20
35.8316
 30
0.0
 11
145.208
 21
35.8316
 31
0.0
  0
LINE
  8
0
 62
     0
 10
145.208
 20
35.8316
 30
0.0
 11
145.208
 21
21.8323
 31
0.0
  0
LINE
  8
0
 62
     0
 10
145.208
 20
21.8323
 30
0.0
 11
131.207
 21
21.8323
 31
0.0
  0
LINE
  8
0
 62
     0
 10
131.207
 20
21.8323
 30
0.0
 11
131.207
 21
35.8316
 31
0.0
  0
LINE
  8
0
 62
     0
 10
112.157
 20
35.8316
 30
0.0
 11
126.158
 21
35.8316
 31
0.0
  0
LINE
  8
0
 62
     0
 10
126.158
 20
35.8316
 30
0.0
 11
126.158
 21
21.8323
 31
0.0
  0
LINE
  8
0
 62
     0
 10
126.158
 20
21.8323
 30
0.0
 11
112.157
 21
21.8323
 31
0.0
  0
LINE
  8
0
 62
     0
 10
112.157
 20
21.8323
 30
0.0
 11
112.157
 21
35.8316
 31
0.0
  0
LINE
  8
0
 62
     0
 10
93.1072
 20
35.8316
 30
0.0
 11
107.108
 21
35.8316
 31
0.0
  0
LINE
  8
0
 62
     0
 10
107.108
 20
35.8316
 30
0.0
 11
107.108
 21
21.8323
 31
0.0
  0
LINE
  8
0
 62
     0
 10
107.108
 20
21.8323
 30
0.0
 11
93.1072
 21
21.8323
 31
0.0
  0
LINE
  8
0
 62
     0
 10
93.1072
 20
21.8323
 30
0.0
 11
93.1072
 21
35.8316
 31
0.0
  0
LINE
  8
0
 62
     0
 10
74.0572
 20
35.8316
 30
0.0
 11
88.0579
 21
35.8316
 31
0.0
  0
LINE
  8
0
 62
     0
 10
88.0579
 20
35.8316
 30
0.0
 11
88.0579
 21
21.8323
 31
0.0
  0
LINE
  8
0
 62
     0
 10
88.0579
 20
21.8323
 30
0.0
 11
74.0572
 21
21.8323
 31
0.0
  0
LINE
  8
0
 62
     0
 10
74.0572
 20
21.8323
 30
0.0
 11
74.0572
 21
35.8316
 31
0.0
  0
LINE
  8
0
 62
     0
 10
55.0072
 20
35.8316
 30
0.0
 11
69.0079
 21
35.8316
 31
0.0
  0
LINE
  8
0
 62
     0
 10
69.0079
 20
35.8316
 30
0.0
 11
69.0079
 21
21.8323
 31
0.0
  0
LINE
  8
0
 62
     0
 10
69.0079
 20
21.8323
 30
0.0
 11
55.0072
 21
21.8323
 31
0.0
  0
LINE
  8
0
 62
     0
 10
55.0072
 20
21.8323
 30
0.0
 11
55.0072
 21
35.8316
 31
0.0
  0
LINE
  8
0
 62
     0
 10
35.9572
 20
35.8316
 30
0.0
 11
49.9579
 21
35.8316
 31
0.0
  0
LINE
  8
0
 62
     0
 10
49.9579
 20
35.8316
 30
0.0
 11
49.9579
 21
21.8323
 31
0.0
  0
LINE
  8
0
 62
     0
 10
49.9579
 20
21.8323
 30
0.0
 11
35.9572
 21
21.8323
 31
0.0
  0
LINE
  8
0
 62
     0
 10
35.9572
 20
21.8323
 30
0.0
 11
35.9572
 21
35.8316
 31
0.0
  0
LINE
  8
0
 62
     0
 10
9.76341
 20
35.8316
 30
0.0
 11
23.7629
 21
35.8316
 31
0.0
  0
LINE
  8
0
 62
     0
 10
23.7629
 20
35.8316
 30
0.0
 11
23.7629
 21
21.8323
 31
0.0
  0
LINE
  8
0
 62
     0
 10
23.7629
 20
21.8323
 30
0.0
 11
9.76341
 21
21.8323
 31
0.0
  0
LINE
  8
0
 62
     0
 10
9.76341
 20
21.8323
 30
0.0
 11
9.76341
 21
35.8316
 31
0.0
  0
LINE
  8
0
 62
     0
 10
224.076
 20
54.8816
 30
0.0
 11
238.077
 21
54.8816
 31
0.0
  0
LINE
  8
0
 62
     0
 10
238.077
 20
54.8816
 30
0.0
 11
238.077
 21
40.8824
 31
0.0
  0
LINE
  8
0
 62
     0
 10
238.077
 20
40.8824
 30
0.0
 11
224.076
 21
40.8824
 31
0.0
  0
LINE
  8
0
 62
     0
 10
224.076
 20
40.8824
 30
0.0
 11
224.076
 21
54.8816
 31
0.0
  0
LINE
  8
0
 62
     0
 10
197.882
 20
54.8816
 30
0.0
 11
211.883
 21
54.8816
 31
0.0
  0
LINE
  8
0
 62
     0
 10
211.883
 20
54.8816
 30
0.0
 11
211.883
 21
40.8824
 31
0.0
  0
LINE
  8
0
 62
     0
 10
211.883
 20
40.8824
 30
0.0
 11
197.882
 21
40.8824
 31
0.0
  0
LINE
  8
0
 62
     0
 10
197.882
 20
40.8824
 30
0.0
 11
197.882
 21
54.8816
 31
0.0
  0
LINE
  8
0
 62
     0
 10
178.832
 20
54.8816
 30
0.0
 11
192.833
 21
54.8816
 31
0.0
  0
LINE
  8
0
 62
     0
 10
192.833
 20
54.8816
 30
0.0
 11
192.833
 21
40.8824
 31
0.0
  0
LINE
  8
0
 62
     0
 10
192.833
 20
40.8824
 30
0.0
 11
178.832
 21
40.8824
 31
0.0
  0
LINE
  8
0
 62
     0
 10
178.832
 20
40.8824
 30
0.0
 11
178.832
 21
54.8816
 31
0.0
  0
LINE
  8
0
 62
     0
 10
159.782
 20
54.8816
 30
0.0
 11
173.783
 21
54.8816
 31
0.0
  0
LINE
  8
0
 62
     0
 10
173.783
 20
54.8816
 30
0.0
 11
173.783
 21
40.8824
 31
0.0
  0
LINE
  8
0
 62
     0
 10
173.783
 20
40.8824
 30
0.0
 11
159.782
 21
40.8824
 31
0.0
  0
LINE
  8
0
 62
     0
 10
159.782
 20
40.8824
 30
0.0
 11
159.782
 21
54.8816
 31
0.0
  0
LINE
  8
0
 62
     0
 10
140.732
 20
54.8816
 30
0.0
 11
154.733
 21
54.8816
 31
0.0
  0
LINE
  8
0
 62
     0
 10
154.733
 20
54.8816
 30
0.0
 11
154.733
 21
40.8824
 31
0.0
  0
LINE
  8
0
 62
     0
 10
154.733
 20
40.8824
 30
0.0
 11
140.732
 21
40.8824
 31
0.0
  0
LINE
  8
0
 62
     0
 10
140.732
 20
40.8824
 30
0.0
 11
140.732
 21
54.8816
 31
0.0
  0
LINE
  8
0
 62
     0
 10
121.682
 20
54.8816
 30
0.0
 11
135.683
 21
54.8816
 31
0.0
  0
LINE
  8
0
 62
     0
 10
135.683
 20
54.8816
 30
0.0
 11
135.683
 21
40.8824
 31
0.0
  0
LINE
  8
0
 62
     0
 10
135.683
 20
40.8824
 30
0.0
 11
121.682
 21
40.8824
 31
0.0
  0
LINE
  8
0
 62
     0
 10
121.682
 20
40.8824
 30
0.0
 11
121.682
 21
54.8816
 31
0.0
  0
LINE
  8
0
 62
     0
 10
102.632
 20
54.8816
 30
0.0
 11
116.633
 21
54.8816
 31
0.0
  0
LINE
  8
0
 62
     0
 10
116.633
 20
54.8816
 30
0.0
 11
116.633
 21
40.8824
 31
0.0
  0
LINE
  8
0
 62
     0
 10
116.633
 20
40.8824
 30
0.0
 11
102.632
 21
40.8824
 31
0.0
  0
LINE
  8
0
 62
     0
 10
102.632
 20
40.8824
 30
0.0
 11
102.632
 21
54.8816
 31
0.0
  0
LINE
  8
0
 62
     0
 10
83.5822
 20
54.8816
 30
0.0
 11
97.5829
 21
54.8816
 31
0.0
  0
LINE
  8
0
 62
     0
 10
97.5829
 20
54.8816
 30
0.0
 11
97.5829
 21
40.8824
 31
0.0
  0
LINE
  8
0
 62
     0
 10
97.5829
 20
40.8824
 30
0.0
 11
83.5822
 21
40.8824
 31
0.0
  0
LINE
  8
0
 62
     0
 10
83.5822
 20
40.8824
 30
0.0
 11
83.5822
 21
54.8816
 31
0.0
  0
LINE
  8
0
 62
     0
 10
64.5322
 20
54.8816
 30
0.0
 11
78.5329
 21
54.8816
 31
0.0
  0
LINE
  8
0
 62
     0
 10
78.5329
 20
54.8816
 30
0.0
 11
78.5329
 21
40.8824
 31
0.0
  0
LINE
  8
0
 62
     0
 10
78.5329
 20
40.8824
 30
0.0
 11
64.5322
 21
40.8824
 31
0.0
  0
LINE
  8
0
 62
     0
 10
64.5322
 20
40.8824
 30
0.0
 11
64.5322
 21
54.8816
 31
0.0
  0
LINE
  8
0
 62
     0
 10
45.4822
 20
54.8816
 30
0.0
 11
59.4829
 21
54.8816
 31
0.0
  0
LINE
  8
0
 62
     0
 10
59.4829
 20
54.8816
 30
0.0
 11
59.4829
 21
40.8824
 31
0.0
  0
LINE
  8
0
 62
     0
 10
59.4829
 20
40.8824
 30
0.0
 11
45.4822
 21
40.8824
 31
0.0
  0
LINE
  8
0
 62
     0
 10
45.4822
 20
40.8824
 30
0.0
 11
45.4822
 21
54.8816
 31
0.0
  0
LINE
  8
0
 62
     0
 10
26.4322
 20
54.8816
 30
0.0
 11
40.4329
 21
54.8816
 31
0.0
  0
LINE
  8
0
 62
     0
 10
40.4329
 20
54.8816
 30
0.0
 11
40.4329
 21
40.8824
 31
0.0
  0
LINE
  8
0
 62
     0
 10
40.4329
 20
40.8824
 30
0.0
 11
26.4322
 21
40.8824
 31
0.0
  0
LINE
  8
0
 62
     0
 10
26.4322
 20
40.8824
 30
0.0
 11
26.4322
 21
54.8816
 31
0.0
  0
LINE
  8
0
 62
     0
 10
5.00091
 20
54.8816
 30
0.0
 11
19.0018
 21
54.8816
 31
0.0
  0
LINE
  8
0
 62
     0
 10
19.0018
 20
54.8816
 30
0.0
 11
19.0018
 21
40.8824
 31
0.0
  0
LINE
  8
0
 62
     0
 10
19.0018
 20
40.8824
 30
0.0
 11
5.00091
 21
40.8824
 31
0.0
  0
LINE
  8
0
 62
     0
 10
5.00091
 20
40.8824
 30
0.0
 11
5.00091
 21
54.8816
 31
0.0
  0
LINE
  8
0
 62
     0
 10
231.221
 20
73.9316
 30
0.0
 11
245.22
 21
73.9316
 31
0.0
  0
LINE
  8
0
 62
     0
 10
245.22
 20
73.9316
 30
0.0
 11
245.22
 21
59.9324
 31
0.0
  0
LINE
  8
0
 62
     0
 10
245.22
 20
59.9324
 30
0.0
 11
231.221
 21
59.9324
 31
0.0
  0
LINE
  8
0
 62
     0
 10
231.221
 20
59.9324
 30
0.0
 11
231.221
 21
73.9316
 31
0.0
  0
LINE
  8
0
 62
     0
 10
212.171
 20
73.9316
 30
0.0
 11
226.17
 21
73.9316
 31
0.0
  0
LINE
  8
0
 62
     0
 10
226.17
 20
73.9316
 30
0.0
 11
226.17
 21
59.9324
 31
0.0
  0
LINE
  8
0
 62
     0
 10
226.17
 20
59.9324
 30
0.0
 11
212.171
 21
59.9324
 31
0.0
  0
LINE
  8
0
 62
     0
 10
212.171
 20
59.9324
 30
0.0
 11
212.171
 21
73.9316
 31
0.0
  0
LINE
  8
0
 62
     0
 10
193.121
 20
73.9316
 30
0.0
 11
207.12
 21
73.9316
 31
0.0
  0
LINE
  8
0
 62
     0
 10
207.12
 20
73.9316
 30
0.0
 11
207.12
 21
59.9324
 31
0.0
  0
LINE
  8
0
 62
     0
 10
207.12
 20
59.9324
 30
0.0
 11
193.121
 21
59.9324
 31
0.0
  0
LINE
  8
0
 62
     0
 10
193.121
 20
59.9324
 30
0.0
 11
193.121
 21
73.9316
 31
0.0
  0
LINE
  8
0
 62
     0
 10
174.071
 20
73.9316
 30
0.0
 11
188.07
 21
73.9316
 31
0.0
  0
LINE
  8
0
 62
     0
 10
188.07
 20
73.9316
 30
0.0
 11
188.07
 21
59.9324
 31
0.0
  0
LINE
  8
0
 62
     0
 10
188.07
 20
59.9324
 30
0.0
 11
174.071
 21
59.9324
 31
0.0
  0
LINE
  8
0
 62
     0
 10
174.071
 20
59.9324
 30
0.0
 11
174.071
 21
73.9316
 31
0.0
  0
LINE
  8
0
 62
     0
 10
155.021
 20
73.9316
 30
0.0
 11
169.02
 21
73.9316
 31
0.0
  0
LINE
  8
0
 62
     0
 10
169.02
 20
73.9316
 30
0.0
 11
169.02
 21
59.9324
 31
0.0
  0
LINE
  8
0
 62
     0
 10
169.02
 20
59.9324
 30
0.0
 11
155.021
 21
59.9324
 31
0.0
  0
LINE
  8
0
 62
     0
 10
155.021
 20
59.9324
 30
0.0
 11
155.021
 21
73.9316
 31
0.0
  0
LINE
  8
0
 62
     0
 10
135.971
 20
73.9316
 30
0.0
 11
149.97
 21
73.9316
 31
0.0
  0
LINE
  8
0
 62
     0
 10
149.97
 20
73.9316
 30
0.0
 11
149.97
 21
59.9324
 31
0.0
  0
LINE
  8
0
 62
     0
 10
149.97
 20
59.9324
 30
0.0
 11
135.971
 21
59.9324
 31
0.0
  0
LINE
  8
0
 62
     0
 10
135.971
 20
59.9324
 30
0.0
 11
135.971
 21
73.9316
 31
0.0
  0
LINE
  8
0
 62
     0
 10
116.92
 20
73.9316
 30
0.0
 11
130.92
 21
73.9316
 31
0.0
  0
LINE
  8
0
 62
     0
 10
130.92
 20
73.9316
 30
0.0
 11
130.92
 21
59.9324
 31
0.0
  0
LINE
  8
0
 62
     0
 10
130.92
 20
59.9324
 30
0.0
 11
116.92
 21
59.9324
 31
0.0
  0
LINE
  8
0
 62
     0
 10
116.92
 20
59.9324
 30
0.0
 11
116.92
 21
73.9316
 31
0.0
  0
LINE
  8
0
 62
     0
 10
97.8697
 20
73.9316
 30
0.0
 11
111.869
 21
73.9316
 31
0.0
  0
LINE
  8
0
 62
     0
 10
111.869
 20
73.9316
 30
0.0
 11
111.869
 21
59.9324
 31
0.0
  0
LINE
  8
0
 62
     0
 10
111.869
 20
59.9324
 30
0.0
 11
97.8697
 21
59.9324
 31
0.0
  0
LINE
  8
0
 62
     0
 10
97.8697
 20
59.9324
 30
0.0
 11
97.8697
 21
73.9316
 31
0.0
  0
LINE
  8
0
 62
     0
 10
78.8211
 20
73.9316
 30
0.0
 11
92.8204
 21
73.9316
 31
0.0
  0
LINE
  8
0
 62
     0
 10
92.8204
 20
73.9316
 30
0.0
 11
92.8204
 21
59.9324
 31
0.0
  0
LINE
  8
0
 62
     0
 10
92.8204
 20
59.9324
 30
0.0
 11
78.8211
 21
59.9324
 31
0.0
  0
LINE
  8
0
 62
     0
 10
78.8211
 20
59.9324
 30
0.0
 11
78.8211
 21
73.9316
 31
0.0
  0
LINE
  8
0
 62
     0
 10
59.7711
 20
73.9316
 30
0.0
 11
73.7704
 21
73.9316
 31
0.0
  0
LINE
  8
0
 62
     0
 10
73.7704
 20
73.9316
 30
0.0
 11
73.7704
 21
59.9324
 31
0.0
  0
LINE
  8
0
 62
     0
 10
73.7704
 20
59.9324
 30
0.0
 11
59.7711
 21
59.9324
 31
0.0
  0
LINE
  8
0
 62
     0
 10
59.7711
 20
59.9324
 30
0.0
 11
59.7711
 21
73.9316
 31
0.0
  0
LINE
  8
0
 62
     0
 10
40.7211
 20
73.9316
 30
0.0
 11
54.7204
 21
73.9316
 31
0.0
  0
LINE
  8
0
 62
     0
 10
54.7204
 20
73.9316
 30
0.0
 11
54.7204
 21
59.9324
 31
0.0
  0
LINE
  8
0
 62
     0
 10
54.7204
 20
59.9324
 30
0.0
 11
40.7211
 21
59.9324
 31
0.0
  0
LINE
  8
0
 62
     0
 10
40.7211
 20
59.9324
 30
0.0
 11
40.7211
 21
73.9316
 31
0.0
  0
LINE
  8
0
 62
     0
 10
21.671
 20
73.9316
 30
0.0
 11
35.6704
 21
73.9316
 31
0.0
  0
LINE
  8
0
 62
     0
 10
35.6704
 20
73.9316
 30
0.0
 11
35.6704
 21
59.9324
 31
0.0
  0
LINE
  8
0
 62
     0
 10
35.6704
 20
59.9324
 30
0.0
 11
21.671
 21
59.9324
 31
0.0
  0
LINE
  8
0
 62
     0
 10
21.671
 20
59.9324
 30
0.0
 11
21.671
 21
73.9316
 31
0.0
  0
LINE
  8
0
 62
     0
 10
2.62103
 20
73.9316
 30
0.0
 11
16.6205
 21
73.9316
 31
0.0
  0
LINE
  8
0
 62
     0
 10
16.6205
 20
73.9316
 30
0.0
 11
16.6205
 21
59.9324
 31
0.0
  0
LINE
  8
0
 62
     0
 10
16.6205
 20
59.9324
 30
0.0
 11
2.62103
 21
59.9324
 31
0.0
  0
LINE
  8
0
 62
     0
 10
2.62103
 20
59.9324
 30
0.0
 11
2.62103
 21
73.9316
 31
0.0
  0
ENDSEC
  0
EOF
