  0
SECTION
  2
HEADER
  9
$ACADVER
  1
AC1009
  9
$EXTMIN
 10
0.0
 20
0.0
 30
0.0
  9
$EXTMAX
 10
1000.0
 20
1000.0
 30
0.0
  9
$FILLMODE
 70
 0
  9
$SPLFRAME
 70
 1
  0
ENDSEC
  0
SECTION
  2
TABLES
  0
TABLE
  2
LAYER
 70
1
  0
LAYER
  2
0
 70
     0
 62
     7
  6
CONTINUOUS
  0
ENDTAB
  0
ENDSEC
  0
SECTION
  2
ENTITIES
  0
LINE
  8
0
 62
     0
 10
250.128
 20
81.3964
 30
0.0
 11
250.315
 21
81.3897
 31
0.0
  0
LINE
  8
0
 62
     0
 10
250.315
 20
81.3897
 30
0.0
 11
250.5
 21
81.3675
 31
0.0
  0
LINE
  8
0
 62
     0
 10
250.5
 20
81.3675
 30
0.0
 11
250.683
 21
81.3319
 31
0.0
  0
LINE
  8
0
 62
     0
 10
250.683
 20
81.3319
 30
0.0
 11
250.863
 21
81.2807
 31
0.0
  0
LINE
  8
0
 62
     0
 10
250.863
 20
81.2807
 30
0.0
 11
251.038
 21
81.2147
 31
0.0
  0
LINE
  8
0
 62
     0
 10
251.038
 20
81.2147
 30
0.0
 11
251.208
 21
81.1375
 31
0.0
  0
LINE
  8
0
 62
     0
 10
251.208
 20
81.1375
 30
0.0
 11
251.372
 21
81.0465
 31
0.0
  0
LINE
  8
0
 62
     0
 10
251.372
 20
81.0465
 30
0.0
 11
251.525
 21
80.9417
 31
0.0
  0
LINE
  8
0
 62
     0
 10
251.525
 20
80.9417
 30
0.0
 11
251.672
 21
80.826
 31
0.0
  0
LINE
  8
0
 62
     0
 10
251.672
 20
80.826
 30
0.0
 11
251.812
 21
80.6993
 31
0.0
  0
LINE
  8
0
 62
     0
 10
251.812
 20
80.6993
 30
0.0
 11
251.937
 21
80.5614
 31
0.0
  0
LINE
  8
0
 62
     0
 10
251.937
 20
80.5614
 30
0.0
 11
252.053
 21
80.4153
 31
0.0
  0
LINE
  8
0
 62
     0
 10
252.053
 20
80.4153
 30
0.0
 11
252.157
 21
80.2598
 31
0.0
  0
LINE
  8
0
 62
     0
 10
252.157
 20
80.2598
 30
0.0
 11
252.248
 21
80.0957
 31
0.0
  0
LINE
  8
0
 62
     0
 10
252.248
 20
80.0957
 30
0.0
 11
252.327
 21
79.9274
 31
0.0
  0
LINE
  8
0
 62
     0
 10
252.327
 20
79.9274
 30
0.0
 11
252.392
 21
79.7511
 31
0.0
  0
LINE
  8
0
 62
     0
 10
252.392
 20
79.7511
 30
0.0
 11
252.441
 21
79.5708
 31
0.0
  0
LINE
  8
0
 62
     0
 10
252.441
 20
79.5708
 30
0.0
 11
252.48
 21
79.3888
 31
0.0
  0
LINE
  8
0
 62
     0
 10
252.48
 20
79.3888
 30
0.0
 11
252.502
 21
79.2028
 31
0.0
  0
LINE
  8
0
 62
     0
 10
252.502
 20
79.2028
 30
0.0
 11
252.509
 21
79.0152
 31
0.0
  0
LINE
  8
0
 62
     0
 10
252.509
 20
79.0152
 30
0.0
 11
252.509
 21
2.81395
 31
0.0
  0
LINE
  8
0
 62
     0
 10
252.509
 20
2.81395
 30
0.0
 11
252.502
 21
2.62654
 31
0.0
  0
LINE
  8
0
 62
     0
 10
252.502
 20
2.62654
 30
0.0
 11
252.48
 21
2.44189
 31
0.0
  0
LINE
  8
0
 62
     0
 10
252.48
 20
2.44189
 30
0.0
 11
252.441
 21
2.2586
 31
0.0
  0
LINE
  8
0
 62
     0
 10
252.441
 20
2.2586
 30
0.0
 11
252.392
 21
2.07808
 31
0.0
  0
LINE
  8
0
 62
     0
 10
252.392
 20
2.07808
 30
0.0
 11
252.327
 21
1.90307
 31
0.0
  0
LINE
  8
0
 62
     0
 10
252.327
 20
1.90307
 30
0.0
 11
252.248
 21
1.73357
 31
0.0
  0
LINE
  8
0
 62
     0
 10
252.248
 20
1.73357
 30
0.0
 11
252.157
 21
1.56959
 31
0.0
  0
LINE
  8
0
 62
     0
 10
252.157
 20
1.56959
 30
0.0
 11
252.053
 21
1.41525
 31
0.0
  0
LINE
  8
0
 62
     0
 10
252.053
 20
1.41525
 30
0.0
 11
251.937
 21
1.2678
 31
0.0
  0
LINE
  8
0
 62
     0
 10
251.937
 20
1.2678
 30
0.0
 11
251.812
 21
1.12999
 31
0.0
  0
LINE
  8
0
 62
     0
 10
251.812
 20
1.12999
 30
0.0
 11
251.672
 21
1.00459
 31
0.0
  0
LINE
  8
0
 62
     0
 10
251.672
 20
1.00459
 30
0.0
 11
251.525
 21
0.888834
 31
0.0
  0
LINE
  8
0
 62
     0
 10
251.525
 20
0.888834
 30
0.0
 11
251.372
 21
0.784105
 31
0.0
  0
LINE
  8
0
 62
     0
 10
251.372
 20
0.784105
 30
0.0
 11
251.208
 21
0.693152
 31
0.0
  0
LINE
  8
0
 62
     0
 10
251.208
 20
0.693152
 30
0.0
 11
251.038
 21
0.614606
 31
0.0
  0
LINE
  8
0
 62
     0
 10
251.038
 20
0.614606
 30
0.0
 11
250.863
 21
0.549836
 31
0.0
  0
LINE
  8
0
 62
     0
 10
250.863
 20
0.549836
 30
0.0
 11
250.683
 21
0.498849
 31
0.0
  0
LINE
  8
0
 62
     0
 10
250.683
 20
0.498849
 30
0.0
 11
250.5
 21
0.461641
 31
0.0
  0
LINE
  8
0
 62
     0
 10
250.5
 20
0.461641
 30
0.0
 11
250.315
 21
0.439593
 31
0.0
  0
LINE
  8
0
 62
     0
 10
250.315
 20
0.439593
 30
0.0
 11
250.128
 21
0.432703
 31
0.0
  0
LINE
  8
0
 62
     0
 10
250.128
 20
0.432703
 30
0.0
 11
2.47633
 21
0.432703
 31
0.0
  0
LINE
  8
0
 62
     0
 10
2.47633
 20
0.432703
 30
0.0
 11
2.28892
 21
0.439593
 31
0.0
  0
LINE
  8
0
 62
     0
 10
2.28892
 20
0.439593
 30
0.0
 11
2.10289
 21
0.461641
 31
0.0
  0
LINE
  8
0
 62
     0
 10
2.10289
 20
0.461641
 30
0.0
 11
1.92098
 21
0.498849
 31
0.0
  0
LINE
  8
0
 62
     0
 10
1.92098
 20
0.498849
 30
0.0
 11
1.74046
 21
0.549836
 31
0.0
  0
LINE
  8
0
 62
     0
 10
1.74046
 20
0.549836
 30
0.0
 11
1.56407
 21
0.614606
 31
0.0
  0
LINE
  8
0
 62
     0
 10
1.56407
 20
0.614606
 30
0.0
 11
1.39595
 21
0.693152
 31
0.0
  0
LINE
  8
0
 62
     0
 10
1.39595
 20
0.693152
 30
0.0
 11
1.23197
 21
0.784105
 31
0.0
  0
LINE
  8
0
 62
     0
 10
1.23197
 20
0.784105
 30
0.0
 11
1.07625
 21
0.888834
 31
0.0
  0
LINE
  8
0
 62
     0
 10
1.07625
 20
0.888834
 30
0.0
 11
0.930176
 21
1.00459
 31
0.0
  0
LINE
  8
0
 62
     0
 10
0.930176
 20
1.00459
 30
0.0
 11
0.792371
 21
1.12999
 31
0.0
  0
LINE
  8
0
 62
     0
 10
0.792371
 20
1.12999
 30
0.0
 11
0.665593
 21
1.2678
 31
0.0
  0
LINE
  8
0
 62
     0
 10
0.665593
 20
1.2678
 30
0.0
 11
0.549836
 21
1.41525
 31
0.0
  0
LINE
  8
0
 62
     0
 10
0.549836
 20
1.41525
 30
0.0
 11
0.445107
 21
1.56959
 31
0.0
  0
LINE
  8
0
 62
     0
 10
0.445107
 20
1.56959
 30
0.0
 11
0.354157
 21
1.73357
 31
0.0
  0
LINE
  8
0
 62
     0
 10
0.354157
 20
1.73357
 30
0.0
 11
0.276986
 21
1.90307
 31
0.0
  0
LINE
  8
0
 62
     0
 10
0.276986
 20
1.90307
 30
0.0
 11
0.21084
 21
2.07808
 31
0.0
  0
LINE
  8
0
 62
     0
 10
0.21084
 20
2.07808
 30
0.0
 11
0.159852
 21
2.2586
 31
0.0
  0
LINE
  8
0
 62
     0
 10
0.159852
 20
2.2586
 30
0.0
 11
0.124024
 21
2.44189
 31
0.0
  0
LINE
  8
0
 62
     0
 10
0.124024
 20
2.44189
 30
0.0
 11
0.101975
 21
2.62654
 31
0.0
  0
LINE
  8
0
 62
     0
 10
0.101975
 20
2.62654
 30
0.0
 11
0.0950846
 21
2.81395
 31
0.0
  0
LINE
  8
0
 62
     0
 10
0.0950846
 20
2.81395
 30
0.0
 11
0.0950846
 21
79.0152
 31
0.0
  0
LINE
  8
0
 62
     0
 10
0.0950846
 20
79.0152
 30
0.0
 11
0.101975
 21
79.2028
 31
0.0
  0
LINE
  8
0
 62
     0
 10
0.101975
 20
79.2028
 30
0.0
 11
0.124024
 21
79.3888
 31
0.0
  0
LINE
  8
0
 62
     0
 10
0.124024
 20
79.3888
 30
0.0
 11
0.159852
 21
79.5708
 31
0.0
  0
LINE
  8
0
 62
     0
 10
0.159852
 20
79.5708
 30
0.0
 11
0.21084
 21
79.7511
 31
0.0
  0
LINE
  8
0
 62
     0
 10
0.21084
 20
79.7511
 30
0.0
 11
0.276986
 21
79.9274
 31
0.0
  0
LINE
  8
0
 62
     0
 10
0.276986
 20
79.9274
 30
0.0
 11
0.354157
 21
80.0957
 31
0.0
  0
LINE
  8
0
 62
     0
 10
0.354157
 20
80.0957
 30
0.0
 11
0.445107
 21
80.2598
 31
0.0
  0
LINE
  8
0
 62
     0
 10
0.445107
 20
80.2598
 30
0.0
 11
0.549836
 21
80.4153
 31
0.0
  0
LINE
  8
0
 62
     0
 10
0.549836
 20
80.4153
 30
0.0
 11
0.665593
 21
80.5614
 31
0.0
  0
LINE
  8
0
 62
     0
 10
0.665593
 20
80.5614
 30
0.0
 11
0.792371
 21
80.6993
 31
0.0
  0
LINE
  8
0
 62
     0
 10
0.792371
 20
80.6993
 30
0.0
 11
0.930176
 21
80.826
 31
0.0
  0
LINE
  8
0
 62
     0
 10
0.930176
 20
80.826
 30
0.0
 11
1.07625
 21
80.9417
 31
0.0
  0
LINE
  8
0
 62
     0
 10
1.07625
 20
80.9417
 30
0.0
 11
1.23197
 21
81.0465
 31
0.0
  0
LINE
  8
0
 62
     0
 10
1.23197
 20
81.0465
 30
0.0
 11
1.39595
 21
81.1375
 31
0.0
  0
LINE
  8
0
 62
     0
 10
1.39595
 20
81.1375
 30
0.0
 11
1.56407
 21
81.2147
 31
0.0
  0
LINE
  8
0
 62
     0
 10
1.56407
 20
81.2147
 30
0.0
 11
1.74046
 21
81.2807
 31
0.0
  0
LINE
  8
0
 62
     0
 10
1.74046
 20
81.2807
 30
0.0
 11
1.92098
 21
81.3319
 31
0.0
  0
LINE
  8
0
 62
     0
 10
1.92098
 20
81.3319
 30
0.0
 11
2.10289
 21
81.3675
 31
0.0
  0
LINE
  8
0
 62
     0
 10
2.10289
 20
81.3675
 30
0.0
 11
2.28892
 21
81.3897
 31
0.0
  0
LINE
  8
0
 62
     0
 10
2.28892
 20
81.3897
 30
0.0
 11
2.47633
 21
81.3964
 31
0.0
  0
LINE
  8
0
 62
     0
 10
2.47633
 20
81.3964
 30
0.0
 11
250.128
 21
81.3964
 31
0.0
  0
LINE
  8
0
 62
     0
 10
140.732
 20
19.3408
 30
0.0
 11
140.732
 21
14.6403
 31
0.0
  0
LINE
  8
0
 62
     0
 10
140.732
 20
14.6403
 30
0.0
 11
139.208
 21
14.6403
 31
0.0
  0
LINE
  8
0
 62
     0
 10
139.208
 20
14.6403
 30
0.0
 11
139.208
 21
17.8704
 31
0.0
  0
LINE
  8
0
 62
     0
 10
139.208
 20
17.8704
 30
0.0
 11
132.457
 21
17.8704
 31
0.0
  0
LINE
  8
0
 62
     0
 10
132.457
 20
17.8704
 30
0.0
 11
132.457
 21
14.6403
 31
0.0
  0
LINE
  8
0
 62
     0
 10
132.457
 20
14.6403
 30
0.0
 11
131.633
 21
14.6403
 31
0.0
  0
LINE
  8
0
 62
     0
 10
131.633
 20
14.6403
 30
0.0
 11
131.633
 21
11.8401
 31
0.0
  0
LINE
  8
0
 62
     0
 10
131.633
 20
11.8401
 30
0.0
 11
132.457
 21
11.8401
 31
0.0
  0
LINE
  8
0
 62
     0
 10
132.457
 20
11.8401
 30
0.0
 11
132.457
 21
5.57004
 31
0.0
  0
LINE
  8
0
 62
     0
 10
132.457
 20
5.57004
 30
0.0
 11
134.182
 21
5.57004
 31
0.0
  0
LINE
  8
0
 62
     0
 10
134.182
 20
5.57004
 30
0.0
 11
134.182
 21
4.36975
 31
0.0
  0
LINE
  8
0
 62
     0
 10
134.182
 20
4.36975
 30
0.0
 11
137.483
 21
4.36975
 31
0.0
  0
LINE
  8
0
 62
     0
 10
137.483
 20
4.36975
 30
0.0
 11
137.483
 21
5.57004
 31
0.0
  0
LINE
  8
0
 62
     0
 10
137.483
 20
5.57004
 30
0.0
 11
139.208
 21
5.57004
 31
0.0
  0
LINE
  8
0
 62
     0
 10
139.208
 20
5.57004
 30
0.0
 11
139.208
 21
10.0404
 31
0.0
  0
LINE
  8
0
 62
     0
 10
139.208
 20
10.0404
 30
0.0
 11
140.732
 21
10.0404
 31
0.0
  0
LINE
  8
0
 62
     0
 10
140.732
 20
10.0404
 30
0.0
 11
140.732
 21
5.33989
 31
0.0
  0
LINE
  8
0
 62
     0
 10
140.732
 20
5.33989
 30
0.0
 11
154.733
 21
5.33989
 31
0.0
  0
LINE
  8
0
 62
     0
 10
154.733
 20
5.33989
 30
0.0
 11
154.733
 21
10.0404
 31
0.0
  0
LINE
  8
0
 62
     0
 10
154.733
 20
10.0404
 30
0.0
 11
156.257
 21
10.0404
 31
0.0
  0
LINE
  8
0
 62
     0
 10
156.257
 20
10.0404
 30
0.0
 11
156.257
 21
5.57004
 31
0.0
  0
LINE
  8
0
 62
     0
 10
156.257
 20
5.57004
 30
0.0
 11
157.982
 21
5.57004
 31
0.0
  0
LINE
  8
0
 62
     0
 10
157.982
 20
5.57004
 30
0.0
 11
157.982
 21
4.36975
 31
0.0
  0
LINE
  8
0
 62
     0
 10
157.982
 20
4.36975
 30
0.0
 11
161.283
 21
4.36975
 31
0.0
  0
LINE
  8
0
 62
     0
 10
161.283
 20
4.36975
 30
0.0
 11
161.283
 21
5.57004
 31
0.0
  0
LINE
  8
0
 62
     0
 10
161.283
 20
5.57004
 30
0.0
 11
163.008
 21
5.57004
 31
0.0
  0
LINE
  8
0
 62
     0
 10
163.008
 20
5.57004
 30
0.0
 11
163.008
 21
11.8401
 31
0.0
  0
LINE
  8
0
 62
     0
 10
163.008
 20
11.8401
 30
0.0
 11
163.832
 21
11.8401
 31
0.0
  0
LINE
  8
0
 62
     0
 10
163.832
 20
11.8401
 30
0.0
 11
163.832
 21
14.6403
 31
0.0
  0
LINE
  8
0
 62
     0
 10
163.832
 20
14.6403
 30
0.0
 11
163.008
 21
14.6403
 31
0.0
  0
LINE
  8
0
 62
     0
 10
163.008
 20
14.6403
 30
0.0
 11
163.008
 21
17.8704
 31
0.0
  0
LINE
  8
0
 62
     0
 10
163.008
 20
17.8704
 30
0.0
 11
156.257
 21
17.8704
 31
0.0
  0
LINE
  8
0
 62
     0
 10
156.257
 20
17.8704
 30
0.0
 11
156.257
 21
14.6403
 31
0.0
  0
LINE
  8
0
 62
     0
 10
156.257
 20
14.6403
 30
0.0
 11
154.733
 21
14.6403
 31
0.0
  0
LINE
  8
0
 62
     0
 10
154.733
 20
14.6403
 30
0.0
 11
154.733
 21
19.3408
 31
0.0
  0
LINE
  8
0
 62
     0
 10
154.733
 20
19.3408
 30
0.0
 11
140.732
 21
19.3408
 31
0.0
  0
LINE
  8
0
 62
     0
 10
93.1072
 20
19.3408
 30
0.0
 11
93.1072
 21
14.6403
 31
0.0
  0
LINE
  8
0
 62
     0
 10
93.1072
 20
14.6403
 30
0.0
 11
91.5829
 21
14.6403
 31
0.0
  0
LINE
  8
0
 62
     0
 10
91.5829
 20
14.6403
 30
0.0
 11
91.5829
 21
17.8704
 31
0.0
  0
LINE
  8
0
 62
     0
 10
91.5829
 20
17.8704
 30
0.0
 11
84.8321
 21
17.8704
 31
0.0
  0
LINE
  8
0
 62
     0
 10
84.8321
 20
17.8704
 30
0.0
 11
84.8321
 21
14.6403
 31
0.0
  0
LINE
  8
0
 62
     0
 10
84.8321
 20
14.6403
 30
0.0
 11
84.008
 21
14.6403
 31
0.0
  0
LINE
  8
0
 62
     0
 10
84.008
 20
14.6403
 30
0.0
 11
84.008
 21
11.8401
 31
0.0
  0
LINE
  8
0
 62
     0
 10
84.008
 20
11.8401
 30
0.0
 11
84.8321
 21
11.8401
 31
0.0
  0
LINE
  8
0
 62
     0
 10
84.8321
 20
11.8401
 30
0.0
 11
84.8321
 21
5.57004
 31
0.0
  0
LINE
  8
0
 62
     0
 10
84.8321
 20
5.57004
 30
0.0
 11
86.5572
 21
5.57004
 31
0.0
  0
LINE
  8
0
 62
     0
 10
86.5572
 20
5.57004
 30
0.0
 11
86.5572
 21
4.36975
 31
0.0
  0
LINE
  8
0
 62
     0
 10
86.5572
 20
4.36975
 30
0.0
 11
89.8578
 21
4.36975
 31
0.0
  0
LINE
  8
0
 62
     0
 10
89.8578
 20
4.36975
 30
0.0
 11
89.8578
 21
5.57004
 31
0.0
  0
LINE
  8
0
 62
     0
 10
89.8578
 20
5.57004
 30
0.0
 11
91.5829
 21
5.57004
 31
0.0
  0
LINE
  8
0
 62
     0
 10
91.5829
 20
5.57004
 30
0.0
 11
91.5829
 21
10.0404
 31
0.0
  0
LINE
  8
0
 62
     0
 10
91.5829
 20
10.0404
 30
0.0
 11
93.1072
 21
10.0404
 31
0.0
  0
LINE
  8
0
 62
     0
 10
93.1072
 20
10.0404
 30
0.0
 11
93.1072
 21
5.33989
 31
0.0
  0
LINE
  8
0
 62
     0
 10
93.1072
 20
5.33989
 30
0.0
 11
107.108
 21
5.33989
 31
0.0
  0
LINE
  8
0
 62
     0
 10
107.108
 20
5.33989
 30
0.0
 11
107.108
 21
10.0404
 31
0.0
  0
LINE
  8
0
 62
     0
 10
107.108
 20
10.0404
 30
0.0
 11
108.632
 21
10.0404
 31
0.0
  0
LINE
  8
0
 62
     0
 10
108.632
 20
10.0404
 30
0.0
 11
108.632
 21
5.57004
 31
0.0
  0
LINE
  8
0
 62
     0
 10
108.632
 20
5.57004
 30
0.0
 11
110.357
 21
5.57004
 31
0.0
  0
LINE
  8
0
 62
     0
 10
110.357
 20
5.57004
 30
0.0
 11
110.357
 21
4.36975
 31
0.0
  0
LINE
  8
0
 62
     0
 10
110.357
 20
4.36975
 30
0.0
 11
113.658
 21
4.36975
 31
0.0
  0
LINE
  8
0
 62
     0
 10
113.658
 20
4.36975
 30
0.0
 11
113.658
 21
5.57004
 31
0.0
  0
LINE
  8
0
 62
     0
 10
113.658
 20
5.57004
 30
0.0
 11
115.383
 21
5.57004
 31
0.0
  0
LINE
  8
0
 62
     0
 10
115.383
 20
5.57004
 30
0.0
 11
115.383
 21
11.8401
 31
0.0
  0
LINE
  8
0
 62
     0
 10
115.383
 20
11.8401
 30
0.0
 11
116.207
 21
11.8401
 31
0.0
  0
LINE
  8
0
 62
     0
 10
116.207
 20
11.8401
 30
0.0
 11
116.207
 21
14.6403
 31
0.0
  0
LINE
  8
0
 62
     0
 10
116.207
 20
14.6403
 30
0.0
 11
115.383
 21
14.6403
 31
0.0
  0
LINE
  8
0
 62
     0
 10
115.383
 20
14.6403
 30
0.0
 11
115.383
 21
17.8704
 31
0.0
  0
LINE
  8
0
 62
     0
 10
115.383
 20
17.8704
 30
0.0
 11
108.632
 21
17.8704
 31
0.0
  0
LINE
  8
0
 62
     0
 10
108.632
 20
17.8704
 30
0.0
 11
108.632
 21
14.6403
 31
0.0
  0
LINE
  8
0
 62
     0
 10
108.632
 20
14.6403
 30
0.0
 11
107.108
 21
14.6403
 31
0.0
  0
LINE
  8
0
 62
     0
 10
107.108
 20
14.6403
 30
0.0
 11
107.108
 21
19.3408
 31
0.0
  0
LINE
  8
0
 62
     0
 10
107.108
 20
19.3408
 30
0.0
 11
93.1072
 21
19.3408
 31
0.0
  0
LINE
  8
0
 62
     0
 10
219.313
 20
19.3408
 30
0.0
 11
233.313
 21
19.3408
 31
0.0
  0
LINE
  8
0
 62
     0
 10
233.313
 20
19.3408
 30
0.0
 11
233.313
 21
5.33989
 31
0.0
  0
LINE
  8
0
 62
     0
 10
233.313
 20
5.33989
 30
0.0
 11
219.313
 21
5.33989
 31
0.0
  0
LINE
  8
0
 62
     0
 10
219.313
 20
5.33989
 30
0.0
 11
219.313
 21
19.3408
 31
0.0
  0
LINE
  8
0
 62
     0
 10
197.882
 20
19.3408
 30
0.0
 11
211.883
 21
19.3408
 31
0.0
  0
LINE
  8
0
 62
     0
 10
211.883
 20
19.3408
 30
0.0
 11
211.883
 21
5.33989
 31
0.0
  0
LINE
  8
0
 62
     0
 10
211.883
 20
5.33989
 30
0.0
 11
197.882
 21
5.33989
 31
0.0
  0
LINE
  8
0
 62
     0
 10
197.882
 20
5.33989
 30
0.0
 11
197.882
 21
19.3408
 31
0.0
  0
LINE
  8
0
 62
     0
 10
176.451
 20
19.3408
 30
0.0
 11
190.452
 21
19.3408
 31
0.0
  0
LINE
  8
0
 62
     0
 10
190.452
 20
19.3408
 30
0.0
 11
190.452
 21
5.33989
 31
0.0
  0
LINE
  8
0
 62
     0
 10
190.452
 20
5.33989
 30
0.0
 11
176.451
 21
5.33989
 31
0.0
  0
LINE
  8
0
 62
     0
 10
176.451
 20
5.33989
 30
0.0
 11
176.451
 21
19.3408
 31
0.0
  0
LINE
  8
0
 62
     0
 10
62.151
 20
19.3408
 30
0.0
 11
76.1517
 21
19.3408
 31
0.0
  0
LINE
  8
0
 62
     0
 10
76.1517
 20
19.3408
 30
0.0
 11
76.1517
 21
5.33989
 31
0.0
  0
LINE
  8
0
 62
     0
 10
76.1517
 20
5.33989
 30
0.0
 11
62.151
 21
5.33989
 31
0.0
  0
LINE
  8
0
 62
     0
 10
62.151
 20
5.33989
 30
0.0
 11
62.151
 21
19.3408
 31
0.0
  0
LINE
  8
0
 62
     0
 10
40.7211
 20
19.3408
 30
0.0
 11
54.7204
 21
19.3408
 31
0.0
  0
LINE
  8
0
 62
     0
 10
54.7204
 20
19.3408
 30
0.0
 11
54.7204
 21
5.33989
 31
0.0
  0
LINE
  8
0
 62
     0
 10
54.7204
 20
5.33989
 30
0.0
 11
40.7211
 21
5.33989
 31
0.0
  0
LINE
  8
0
 62
     0
 10
40.7211
 20
5.33989
 30
0.0
 11
40.7211
 21
19.3408
 31
0.0
  0
LINE
  8
0
 62
     0
 10
19.2884
 20
19.3408
 30
0.0
 11
33.2879
 21
19.3408
 31
0.0
  0
LINE
  8
0
 62
     0
 10
33.2879
 20
19.3408
 30
0.0
 11
33.2879
 21
5.33989
 31
0.0
  0
LINE
  8
0
 62
     0
 10
33.2879
 20
5.33989
 30
0.0
 11
19.2884
 21
5.33989
 31
0.0
  0
LINE
  8
0
 62
     0
 10
19.2884
 20
5.33989
 30
0.0
 11
19.2884
 21
19.3408
 31
0.0
  0
LINE
  8
0
 62
     0
 10
231.221
 20
38.3907
 30
0.0
 11
245.22
 21
38.3907
 31
0.0
  0
LINE
  8
0
 62
     0
 10
245.22
 20
38.3907
 30
0.0
 11
245.22
 21
24.3899
 31
0.0
  0
LINE
  8
0
 62
     0
 10
245.22
 20
24.3899
 30
0.0
 11
231.221
 21
24.3899
 31
0.0
  0
LINE
  8
0
 62
     0
 10
231.221
 20
24.3899
 30
0.0
 11
231.221
 21
38.3907
 31
0.0
  0
LINE
  8
0
 62
     0
 10
209.788
 20
38.3907
 30
0.0
 11
223.788
 21
38.3907
 31
0.0
  0
LINE
  8
0
 62
     0
 10
223.788
 20
38.3907
 30
0.0
 11
223.788
 21
24.3899
 31
0.0
  0
LINE
  8
0
 62
     0
 10
223.788
 20
24.3899
 30
0.0
 11
209.788
 21
24.3899
 31
0.0
  0
LINE
  8
0
 62
     0
 10
209.788
 20
24.3899
 30
0.0
 11
209.788
 21
38.3907
 31
0.0
  0
LINE
  8
0
 62
     0
 10
190.738
 20
38.3907
 30
0.0
 11
204.738
 21
38.3907
 31
0.0
  0
LINE
  8
0
 62
     0
 10
204.738
 20
38.3907
 30
0.0
 11
204.738
 21
24.3899
 31
0.0
  0
LINE
  8
0
 62
     0
 10
204.738
 20
24.3899
 30
0.0
 11
190.738
 21
24.3899
 31
0.0
  0
LINE
  8
0
 62
     0
 10
190.738
 20
24.3899
 30
0.0
 11
190.738
 21
38.3907
 31
0.0
  0
LINE
  8
0
 62
     0
 10
171.688
 20
38.3907
 30
0.0
 11
185.688
 21
38.3907
 31
0.0
  0
LINE
  8
0
 62
     0
 10
185.688
 20
38.3907
 30
0.0
 11
185.688
 21
24.3899
 31
0.0
  0
LINE
  8
0
 62
     0
 10
185.688
 20
24.3899
 30
0.0
 11
171.688
 21
24.3899
 31
0.0
  0
LINE
  8
0
 62
     0
 10
171.688
 20
24.3899
 30
0.0
 11
171.688
 21
38.3907
 31
0.0
  0
LINE
  8
0
 62
     0
 10
152.638
 20
38.3907
 30
0.0
 11
166.638
 21
38.3907
 31
0.0
  0
LINE
  8
0
 62
     0
 10
166.638
 20
38.3907
 30
0.0
 11
166.638
 21
24.3899
 31
0.0
  0
LINE
  8
0
 62
     0
 10
166.638
 20
24.3899
 30
0.0
 11
152.638
 21
24.3899
 31
0.0
  0
LINE
  8
0
 62
     0
 10
152.638
 20
24.3899
 30
0.0
 11
152.638
 21
38.3907
 31
0.0
  0
LINE
  8
0
 62
     0
 10
133.588
 20
38.3907
 30
0.0
 11
147.588
 21
38.3907
 31
0.0
  0
LINE
  8
0
 62
     0
 10
147.588
 20
38.3907
 30
0.0
 11
147.588
 21
24.3899
 31
0.0
  0
LINE
  8
0
 62
     0
 10
147.588
 20
24.3899
 30
0.0
 11
133.588
 21
24.3899
 31
0.0
  0
LINE
  8
0
 62
     0
 10
133.588
 20
24.3899
 30
0.0
 11
133.588
 21
38.3907
 31
0.0
  0
LINE
  8
0
 62
     0
 10
114.538
 20
38.3907
 30
0.0
 11
128.538
 21
38.3907
 31
0.0
  0
LINE
  8
0
 62
     0
 10
128.538
 20
38.3907
 30
0.0
 11
128.538
 21
24.3899
 31
0.0
  0
LINE
  8
0
 62
     0
 10
128.538
 20
24.3899
 30
0.0
 11
114.538
 21
24.3899
 31
0.0
  0
LINE
  8
0
 62
     0
 10
114.538
 20
24.3899
 30
0.0
 11
114.538
 21
38.3907
 31
0.0
  0
LINE
  8
0
 62
     0
 10
95.4885
 20
38.3907
 30
0.0
 11
109.488
 21
38.3907
 31
0.0
  0
LINE
  8
0
 62
     0
 10
109.488
 20
38.3907
 30
0.0
 11
109.488
 21
24.3899
 31
0.0
  0
LINE
  8
0
 62
     0
 10
109.488
 20
24.3899
 30
0.0
 11
95.4885
 21
24.3899
 31
0.0
  0
LINE
  8
0
 62
     0
 10
95.4885
 20
24.3899
 30
0.0
 11
95.4885
 21
38.3907
 31
0.0
  0
LINE
  8
0
 62
     0
 10
76.4385
 20
38.3907
 30
0.0
 11
90.4378
 21
38.3907
 31
0.0
  0
LINE
  8
0
 62
     0
 10
90.4378
 20
38.3907
 30
0.0
 11
90.4378
 21
24.3899
 31
0.0
  0
LINE
  8
0
 62
     0
 10
90.4378
 20
24.3899
 30
0.0
 11
76.4385
 21
24.3899
 31
0.0
  0
LINE
  8
0
 62
     0
 10
76.4385
 20
24.3899
 30
0.0
 11
76.4385
 21
38.3907
 31
0.0
  0
LINE
  8
0
 62
     0
 10
57.3885
 20
38.3907
 30
0.0
 11
71.3878
 21
38.3907
 31
0.0
  0
LINE
  8
0
 62
     0
 10
71.3878
 20
38.3907
 30
0.0
 11
71.3878
 21
24.3899
 31
0.0
  0
LINE
  8
0
 62
     0
 10
71.3878
 20
24.3899
 30
0.0
 11
57.3885
 21
24.3899
 31
0.0
  0
LINE
  8
0
 62
     0
 10
57.3885
 20
24.3899
 30
0.0
 11
57.3885
 21
38.3907
 31
0.0
  0
LINE
  8
0
 62
     0
 10
38.3385
 20
38.3907
 30
0.0
 11
52.3378
 21
38.3907
 31
0.0
  0
LINE
  8
0
 62
     0
 10
52.3378
 20
38.3907
 30
0.0
 11
52.3378
 21
24.3899
 31
0.0
  0
LINE
  8
0
 62
     0
 10
52.3378
 20
24.3899
 30
0.0
 11
38.3385
 21
24.3899
 31
0.0
  0
LINE
  8
0
 62
     0
 10
38.3385
 20
24.3899
 30
0.0
 11
38.3385
 21
38.3907
 31
0.0
  0
LINE
  8
0
 62
     0
 10
12.1447
 20
38.3907
 30
0.0
 11
26.1441
 21
38.3907
 31
0.0
  0
LINE
  8
0
 62
     0
 10
26.1441
 20
38.3907
 30
0.0
 11
26.1441
 21
24.3899
 31
0.0
  0
LINE
  8
0
 62
     0
 10
26.1441
 20
24.3899
 30
0.0
 11
12.1447
 21
24.3899
 31
0.0
  0
LINE
  8
0
 62
     0
 10
12.1447
 20
24.3899
 30
0.0
 11
12.1447
 21
38.3907
 31
0.0
  0
LINE
  8
0
 62
     0
 10
226.457
 20
57.4407
 30
0.0
 11
240.458
 21
57.4407
 31
0.0
  0
LINE
  8
0
 62
     0
 10
240.458
 20
57.4407
 30
0.0
 11
240.458
 21
43.44
 31
0.0
  0
LINE
  8
0
 62
     0
 10
240.458
 20
43.44
 30
0.0
 11
226.457
 21
43.44
 31
0.0
  0
LINE
  8
0
 62
     0
 10
226.457
 20
43.44
 30
0.0
 11
226.457
 21
57.4407
 31
0.0
  0
LINE
  8
0
 62
     0
 10
200.263
 20
57.4407
 30
0.0
 11
214.263
 21
57.4407
 31
0.0
  0
LINE
  8
0
 62
     0
 10
214.263
 20
57.4407
 30
0.0
 11
214.263
 21
43.44
 31
0.0
  0
LINE
  8
0
 62
     0
 10
214.263
 20
43.44
 30
0.0
 11
200.263
 21
43.44
 31
0.0
  0
LINE
  8
0
 62
     0
 10
200.263
 20
43.44
 30
0.0
 11
200.263
 21
57.4407
 31
0.0
  0
LINE
  8
0
 62
     0
 10
181.213
 20
57.4407
 30
0.0
 11
195.213
 21
57.4407
 31
0.0
  0
LINE
  8
0
 62
     0
 10
195.213
 20
57.4407
 30
0.0
 11
195.213
 21
43.44
 31
0.0
  0
LINE
  8
0
 62
     0
 10
195.213
 20
43.44
 30
0.0
 11
181.213
 21
43.44
 31
0.0
  0
LINE
  8
0
 62
     0
 10
181.213
 20
43.44
 30
0.0
 11
181.213
 21
57.4407
 31
0.0
  0
LINE
  8
0
 62
     0
 10
162.163
 20
57.4407
 30
0.0
 11
176.163
 21
57.4407
 31
0.0
  0
LINE
  8
0
 62
     0
 10
176.163
 20
57.4407
 30
0.0
 11
176.163
 21
43.44
 31
0.0
  0
LINE
  8
0
 62
     0
 10
176.163
 20
43.44
 30
0.0
 11
162.163
 21
43.44
 31
0.0
  0
LINE
  8
0
 62
     0
 10
162.163
 20
43.44
 30
0.0
 11
162.163
 21
57.4407
 31
0.0
  0
LINE
  8
0
 62
     0
 10
143.113
 20
57.4407
 30
0.0
 11
157.113
 21
57.4407
 31
0.0
  0
LINE
  8
0
 62
     0
 10
157.113
 20
57.4407
 30
0.0
 11
157.113
 21
43.44
 31
0.0
  0
LINE
  8
0
 62
     0
 10
157.113
 20
43.44
 30
0.0
 11
143.113
 21
43.44
 31
0.0
  0
LINE
  8
0
 62
     0
 10
143.113
 20
43.44
 30
0.0
 11
143.113
 21
57.4407
 31
0.0
  0
LINE
  8
0
 62
     0
 10
124.062
 20
57.4407
 30
0.0
 11
138.063
 21
57.4407
 31
0.0
  0
LINE
  8
0
 62
     0
 10
138.063
 20
57.4407
 30
0.0
 11
138.063
 21
43.44
 31
0.0
  0
LINE
  8
0
 62
     0
 10
138.063
 20
43.44
 30
0.0
 11
124.062
 21
43.44
 31
0.0
  0
LINE
  8
0
 62
     0
 10
124.062
 20
43.44
 30
0.0
 11
124.062
 21
57.4407
 31
0.0
  0
LINE
  8
0
 62
     0
 10
105.013
 20
57.4407
 30
0.0
 11
119.013
 21
57.4407
 31
0.0
  0
LINE
  8
0
 62
     0
 10
119.013
 20
57.4407
 30
0.0
 11
119.013
 21
43.44
 31
0.0
  0
LINE
  8
0
 62
     0
 10
119.013
 20
43.44
 30
0.0
 11
105.013
 21
43.44
 31
0.0
  0
LINE
  8
0
 62
     0
 10
105.013
 20
43.44
 30
0.0
 11
105.013
 21
57.4407
 31
0.0
  0
LINE
  8
0
 62
     0
 10
85.9635
 20
57.4407
 30
0.0
 11
99.9628
 21
57.4407
 31
0.0
  0
LINE
  8
0
 62
     0
 10
99.9628
 20
57.4407
 30
0.0
 11
99.9628
 21
43.44
 31
0.0
  0
LINE
  8
0
 62
     0
 10
99.9628
 20
43.44
 30
0.0
 11
85.9635
 21
43.44
 31
0.0
  0
LINE
  8
0
 62
     0
 10
85.9635
 20
43.44
 30
0.0
 11
85.9635
 21
57.4407
 31
0.0
  0
LINE
  8
0
 62
     0
 10
66.9135
 20
57.4407
 30
0.0
 11
80.9128
 21
57.4407
 31
0.0
  0
LINE
  8
0
 62
     0
 10
80.9128
 20
57.4407
 30
0.0
 11
80.9128
 21
43.44
 31
0.0
  0
LINE
  8
0
 62
     0
 10
80.9128
 20
43.44
 30
0.0
 11
66.9135
 21
43.44
 31
0.0
  0
LINE
  8
0
 62
     0
 10
66.9135
 20
43.44
 30
0.0
 11
66.9135
 21
57.4407
 31
0.0
  0
LINE
  8
0
 62
     0
 10
47.8635
 20
57.4407
 30
0.0
 11
61.8628
 21
57.4407
 31
0.0
  0
LINE
  8
0
 62
     0
 10
61.8628
 20
57.4407
 30
0.0
 11
61.8628
 21
43.44
 31
0.0
  0
LINE
  8
0
 62
     0
 10
61.8628
 20
43.44
 30
0.0
 11
47.8635
 21
43.44
 31
0.0
  0
LINE
  8
0
 62
     0
 10
47.8635
 20
43.44
 30
0.0
 11
47.8635
 21
57.4407
 31
0.0
  0
LINE
  8
0
 62
     0
 10
28.8134
 20
57.4407
 30
0.0
 11
42.8128
 21
57.4407
 31
0.0
  0
LINE
  8
0
 62
     0
 10
42.8128
 20
57.4407
 30
0.0
 11
42.8128
 21
43.44
 31
0.0
  0
LINE
  8
0
 62
     0
 10
42.8128
 20
43.44
 30
0.0
 11
28.8134
 21
43.44
 31
0.0
  0
LINE
  8
0
 62
     0
 10
28.8134
 20
43.44
 30
0.0
 11
28.8134
 21
57.4407
 31
0.0
  0
LINE
  8
0
 62
     0
 10
7.38216
 20
57.4407
 30
0.0
 11
21.383
 21
57.4407
 31
0.0
  0
LINE
  8
0
 62
     0
 10
21.383
 20
57.4407
 30
0.0
 11
21.383
 21
43.44
 31
0.0
  0
LINE
  8
0
 62
     0
 10
21.383
 20
43.44
 30
0.0
 11
7.38216
 21
43.44
 31
0.0
  0
LINE
  8
0
 62
     0
 10
7.38216
 20
43.44
 30
0.0
 11
7.38216
 21
57.4407
 31
0.0
  0
LINE
  8
0
 62
     0
 10
233.601
 20
76.4907
 30
0.0
 11
247.602
 21
76.4907
 31
0.0
  0
LINE
  8
0
 62
     0
 10
247.602
 20
76.4907
 30
0.0
 11
247.602
 21
62.49
 31
0.0
  0
LINE
  8
0
 62
     0
 10
247.602
 20
62.49
 30
0.0
 11
233.601
 21
62.49
 31
0.0
  0
LINE
  8
0
 62
     0
 10
233.601
 20
62.49
 30
0.0
 11
233.601
 21
76.4907
 31
0.0
  0
LINE
  8
0
 62
     0
 10
214.551
 20
76.4907
 30
0.0
 11
228.552
 21
76.4907
 31
0.0
  0
LINE
  8
0
 62
     0
 10
228.552
 20
76.4907
 30
0.0
 11
228.552
 21
62.49
 31
0.0
  0
LINE
  8
0
 62
     0
 10
228.552
 20
62.49
 30
0.0
 11
214.551
 21
62.49
 31
0.0
  0
LINE
  8
0
 62
     0
 10
214.551
 20
62.49
 30
0.0
 11
214.551
 21
76.4907
 31
0.0
  0
LINE
  8
0
 62
     0
 10
195.501
 20
76.4907
 30
0.0
 11
209.502
 21
76.4907
 31
0.0
  0
LINE
  8
0
 62
     0
 10
209.502
 20
76.4907
 30
0.0
 11
209.502
 21
62.49
 31
0.0
  0
LINE
  8
0
 62
     0
 10
209.502
 20
62.49
 30
0.0
 11
195.501
 21
62.49
 31
0.0
  0
LINE
  8
0
 62
     0
 10
195.501
 20
62.49
 30
0.0
 11
195.501
 21
76.4907
 31
0.0
  0
LINE
  8
0
 62
     0
 10
176.451
 20
76.4907
 30
0.0
 11
190.452
 21
76.4907
 31
0.0
  0
LINE
  8
0
 62
     0
 10
190.452
 20
76.4907
 30
0.0
 11
190.452
 21
62.49
 31
0.0
  0
LINE
  8
0
 62
     0
 10
190.452
 20
62.49
 30
0.0
 11
176.451
 21
62.49
 31
0.0
  0
LINE
  8
0
 62
     0
 10
176.451
 20
62.49
 30
0.0
 11
176.451
 21
76.4907
 31
0.0
  0
LINE
  8
0
 62
     0
 10
157.401
 20
76.4907
 30
0.0
 11
171.402
 21
76.4907
 31
0.0
  0
LINE
  8
0
 62
     0
 10
171.402
 20
76.4907
 30
0.0
 11
171.402
 21
62.49
 31
0.0
  0
LINE
  8
0
 62
     0
 10
171.402
 20
62.49
 30
0.0
 11
157.401
 21
62.49
 31
0.0
  0
LINE
  8
0
 62
     0
 10
157.401
 20
62.49
 30
0.0
 11
157.401
 21
76.4907
 31
0.0
  0
LINE
  8
0
 62
     0
 10
138.351
 20
76.4907
 30
0.0
 11
152.352
 21
76.4907
 31
0.0
  0
LINE
  8
0
 62
     0
 10
152.352
 20
76.4907
 30
0.0
 11
152.352
 21
62.49
 31
0.0
  0
LINE
  8
0
 62
     0
 10
152.352
 20
62.49
 30
0.0
 11
138.351
 21
62.49
 31
0.0
  0
LINE
  8
0
 62
     0
 10
138.351
 20
62.49
 30
0.0
 11
138.351
 21
76.4907
 31
0.0
  0
LINE
  8
0
 62
     0
 10
119.301
 20
76.4907
 30
0.0
 11
133.302
 21
76.4907
 31
0.0
  0
LINE
  8
0
 62
     0
 10
133.302
 20
76.4907
 30
0.0
 11
133.302
 21
62.49
 31
0.0
  0
LINE
  8
0
 62
     0
 10
133.302
 20
62.49
 30
0.0
 11
119.301
 21
62.49
 31
0.0
  0
LINE
  8
0
 62
     0
 10
119.301
 20
62.49
 30
0.0
 11
119.301
 21
76.4907
 31
0.0
  0
LINE
  8
0
 62
     0
 10
100.251
 20
76.4907
 30
0.0
 11
114.252
 21
76.4907
 31
0.0
  0
LINE
  8
0
 62
     0
 10
114.252
 20
76.4907
 30
0.0
 11
114.252
 21
62.49
 31
0.0
  0
LINE
  8
0
 62
     0
 10
114.252
 20
62.49
 30
0.0
 11
100.251
 21
62.49
 31
0.0
  0
LINE
  8
0
 62
     0
 10
100.251
 20
62.49
 30
0.0
 11
100.251
 21
76.4907
 31
0.0
  0
LINE
  8
0
 62
     0
 10
81.201
 20
76.4907
 30
0.0
 11
95.2017
 21
76.4907
 31
0.0
  0
LINE
  8
0
 62
     0
 10
95.2017
 20
76.4907
 30
0.0
 11
95.2017
 21
62.49
 31
0.0
  0
LINE
  8
0
 62
     0
 10
95.2017
 20
62.49
 30
0.0
 11
81.201
 21
62.49
 31
0.0
  0
LINE
  8
0
 62
     0
 10
81.201
 20
62.49
 30
0.0
 11
81.201
 21
76.4907
 31
0.0
  0
LINE
  8
0
 62
     0
 10
62.151
 20
76.4907
 30
0.0
 11
76.1517
 21
76.4907
 31
0.0
  0
LINE
  8
0
 62
     0
 10
76.1517
 20
76.4907
 30
0.0
 11
76.1517
 21
62.49
 31
0.0
  0
LINE
  8
0
 62
     0
 10
76.1517
 20
62.49
 30
0.0
 11
62.151
 21
62.49
 31
0.0
  0
LINE
  8
0
 62
     0
 10
62.151
 20
62.49
 30
0.0
 11
62.151
 21
76.4907
 31
0.0
  0
LINE
  8
0
 62
     0
 10
43.101
 20
76.4907
 30
0.0
 11
57.1017
 21
76.4907
 31
0.0
  0
LINE
  8
0
 62
     0
 10
57.1017
 20
76.4907
 30
0.0
 11
57.1017
 21
62.49
 31
0.0
  0
LINE
  8
0
 62
     0
 10
57.1017
 20
62.49
 30
0.0
 11
43.101
 21
62.49
 31
0.0
  0
LINE
  8
0
 62
     0
 10
43.101
 20
62.49
 30
0.0
 11
43.101
 21
76.4907
 31
0.0
  0
LINE
  8
0
 62
     0
 10
24.0509
 20
76.4907
 30
0.0
 11
38.0517
 21
76.4907
 31
0.0
  0
LINE
  8
0
 62
     0
 10
38.0517
 20
76.4907
 30
0.0
 11
38.0517
 21
62.49
 31
0.0
  0
LINE
  8
0
 62
     0
 10
38.0517
 20
62.49
 30
0.0
 11
24.0509
 21
62.49
 31
0.0
  0
LINE
  8
0
 62
     0
 10
24.0509
 20
62.49
 30
0.0
 11
24.0509
 21
76.4907
 31
0.0
  0
LINE
  8
0
 62
     0
 10
5.00091
 20
76.4907
 30
0.0
 11
19.0018
 21
76.4907
 31
0.0
  0
LINE
  8
0
 62
     0
 10
19.0018
 20
76.4907
 30
0.0
 11
19.0018
 21
62.49
 31
0.0
  0
LINE
  8
0
 62
     0
 10
19.0018
 20
62.49
 30
0.0
 11
5.00091
 21
62.49
 31
0.0
  0
LINE
  8
0
 62
     0
 10
5.00091
 20
62.49
 30
0.0
 11
5.00091
 21
76.4907
 31
0.0
  0
ENDSEC
  0
EOF
